<svg t="1658309308605" class="icon" viewBox="0 0 1024 1024" version="1.1" xmlns="http://www.w3.org/2000/svg" p-id="2913" data-spm-anchor-id="a313x.7781069.0.i4" width="200" height="200"><path d="M527.226285 47.307446c-247.27171 0-447.724091 200.454428-447.724091 447.723068 0 247.273756 200.453405 447.725114 447.724091 447.725114 247.270686 0 447.723068-200.452381 447.723068-447.725114C974.950376 247.761873 774.496971 47.307446 527.226285 47.307446zM767.652076 718.661803c0 19.578917-15.276938 35.453467-34.853809 35.453467L323.095118 754.11527c-19.576871 0-36.046984-15.874549-36.046984-35.453467L287.048133 478.945163c8.966209 2.816139 17.700127 4.363378 27.199479 4.363378 4.14132 0 8.66638-0.313132 12.253068-0.88516L326.500681 703.901635c0 6.930853 6.217608 12.55392 13.150508 12.55392l376.592031 0c6.930853 0 11.955286-5.619998 11.955286-12.55392L728.198505 482.328213c3.587712 0.462534 7.328919 0.704035 11.06194 0.704035 9.822716 0 19.426445-1.616824 28.3947-4.690836L767.652076 718.661803 767.652076 718.661803zM460.708312 473.349725c4.545526-2.355651 9.107425-5.096065 13.175067-8.218172 10.025331 7.779174 21.545712 13.291724 34.075073 16.09456l-156.353001 156.054195 0-55.051827L460.708312 473.349725zM351.606475 544.18605l0-69.350484c5.380544-2.673899 11.05273-5.930059 15.9646-9.737782 13.017478 10.020214 28.92989 16.247033 45.744857 17.678638L351.606475 544.18605zM545.923112 481.266022c12.603039-2.792603 24.603351-8.331759 34.68087-16.163121 14.912641 11.444657 33.331129 17.930371 52.848649 17.930371 19.614733 0 38.032198-6.547113 52.977585-18.083867 5.244444 4.046153 11.281951 7.462972 16.661472 10.211573l0 216.185714L351.606475 691.346691l0-16.021905L545.923112 481.266022zM739.854986 456.244138c-23.048949 0-43.053562-13.041014-53.126988-32.084743-10.077519 19.043728-30.081109 31.999808-53.125965 31.999808-22.98755 0-42.948161-12.922311-53.05024-31.886221-10.048867 19.12457-30.096459 32.17684-53.202713 32.17684-23.107277 0-43.152822-13.043061-53.202713-32.16763-10.101055 18.962887-30.062689 31.904641-53.049217 31.904641-23.045879 0-43.051515-12.929474-53.125965-31.976272-10.076496 19.046798-30.080086 32.143071-53.125965 32.143071-33.17968 0-60.07626-26.672476-60.07626-59.852156 0-1.134847 7.184633-25.934672 15.836687-55.435567l0.016373 0.001023c6.745634-22.902616 18.819624-63.894216 22.276353-75.599815 4.323469-14.636349 17.789155-24.232914 33.04972-24.232914l402.846998 0 0.844228 0c15.420201 0 28.945239 9.754155 33.153074 24.591071 5.796006 20.434401 22.199605 78.225619 30.899754 108.871593l0.001023 0c0.692778 2.435469 1.338485 4.713348 1.935072 6.816243 0.090051 0.316202 0.180102 0.633427 0.267083 0.939395l0 0c2.494821 8.800433 4.031826 14.239306 4.031826 14.276145C799.928177 429.90526 773.033643 456.244138 739.854986 456.244138z" p-id="2914"></path></svg>
