<?xml version="1.0" standalone="no"?><!DOCTYPE svg PUBLIC "-//W3C//DTD SVG 1.1//EN" "http://www.w3.org/Graphics/SVG/1.1/DTD/svg11.dtd"><svg t="1660634783639" class="icon" viewBox="0 0 1024 1024" version="1.1" xmlns="http://www.w3.org/2000/svg" p-id="3188" xmlns:xlink="http://www.w3.org/1999/xlink" width="200" height="200"><defs><style type="text/css">@font-face { font-family: feedback-iconfont; src: url("//at.alicdn.com/t/font_1031158_u69w8yhxdu.woff2?t=1630033759944") format("woff2"), url("//at.alicdn.com/t/font_1031158_u69w8yhxdu.woff?t=1630033759944") format("woff"), url("//at.alicdn.com/t/font_1031158_u69w8yhxdu.ttf?t=1630033759944") format("truetype"); }
</style></defs><path d="M319.999 191.999c0-106.04 85.962-192 192-192 106.04 0 192 85.96 192 192 0 106.037-85.96 192-192 192C405.961 383.999 319.999 298.037 319.999 191.999zM768.078 447.999l-35.425 0L533.549 852.243l74.45-372.244-96-96-96 96 74.45 372.244L291.347 447.999l-35.422 0C128 447.999 128 533.984 128 639.998l0 319.999 767.998 0L895.998 639.998C895.998 533.984 895.998 447.999 768.078 447.999z" p-id="3189"></path></svg>