<?xml version="1.0" standalone="no"?><!DOCTYPE svg PUBLIC "-//W3C//DTD SVG 1.1//EN" "http://www.w3.org/Graphics/SVG/1.1/DTD/svg11.dtd"><svg t="1661239412673" class="icon" viewBox="0 0 1024 1024" version="1.1" xmlns="http://www.w3.org/2000/svg" p-id="3457" xmlns:xlink="http://www.w3.org/1999/xlink" width="200" height="200"><defs><style type="text/css">@font-face { font-family: feedback-iconfont; src: url("//at.alicdn.com/t/font_1031158_u69w8yhxdu.woff2?t=1630033759944") format("woff2"), url("//at.alicdn.com/t/font_1031158_u69w8yhxdu.woff?t=1630033759944") format("woff"), url("//at.alicdn.com/t/font_1031158_u69w8yhxdu.ttf?t=1630033759944") format("truetype"); }
</style></defs><path d="M733.023573 0m79.786667 0l131.84 0q79.786667 0 79.786667 79.786667l0 860.586666q0 79.786667-79.786667 79.786667l-131.84 0q-79.786667 0-79.786667-79.786667l0-860.586666q0-79.786667 79.786667-79.786667Z" p-id="3458"></path><path d="M945.076907 384c15.786667 0 28.586667-17.92 28.586666-40.533333s-12.8-42.666667-28.586666-42.666667H811.103573c-15.786667 0-28.586667 18.346667-28.586666 42.666667s12.8 40.533333 28.586666 40.533333zM945.076907 226.133333c15.786667 0 28.586667-18.346667 28.586666-42.666666s-12.8-40.533333-28.586666-40.533334H811.103573c-15.786667 0-28.586667 17.92-28.586666 40.533334s12.8 42.666667 28.586666 42.666666z" p-id="3459"></path><path d="M0.436907 762.88a95.573333 95.573333 0 0 0 85.333333 104.106667h183.466667v99.84H174.09024a29.44 29.44 0 0 0 0 57.173333h341.333333a29.44 29.44 0 0 0 0-57.173333H417.716907v-99.84h184.746666a95.573333 95.573333 0 0 0 85.333334-104.106667v-23.893333H0.436907zM439.05024 442.88a46.933333 46.933333 0 0 0 0-7.68 69.12 69.12 0 0 0 0-8.106667 18.346667 18.346667 0 0 1 0-2.133333v-7.253333a96 96 0 0 0-85.333333-62.72 96 96 0 0 0-85.333334 62.72v7.253333L256.436907 426.666667a45.226667 45.226667 0 0 1 0 8.106666 46.933333 46.933333 0 0 0 0 7.68 5.546667 5.546667 0 0 0 0 2.56v10.24a32.426667 32.426667 0 0 0 0 6.4 11.946667 11.946667 0 0 0 0 3.84 25.173333 25.173333 0 0 0 0 5.546667v4.266667a97.706667 97.706667 0 0 0 66.986666 73.386666 75.52 75.52 0 0 0 23.893334 3.413334 76.373333 76.373333 0 0 0 24.32-3.413334 98.56 98.56 0 0 0 66.986666-73.386666v-4.266667-5.546667-3.84-16.64s0.426667-1.28 0.426667-2.133333z" p-id="3460"></path><path d="M605.023573 216.32H85.77024a96 96 0 0 0-85.333333 104.533333v366.08h688.213333V320.853333a96 96 0 0 0-83.626667-104.533333z m-73.386666 192.426667v85.333333h-45.226667s-3.84 11.52-5.973333 17.066667a133.546667 133.546667 0 0 1-6.4 13.653333l32 34.56-56.32 60.586667-32-34.133334-13.226667 11.52a96.426667 96.426667 0 0 1-16.64 6.4H384.436907v49.066667H305.93024v-49.92a116.906667 116.906667 0 0 1-17.066667-6.4l-12.8-6.4-32 34.133333-58.026666-61.44 32-34.56a131.84 131.84 0 0 1-4.266667-13.653333 115.2 115.2 0 0 1-5.973333-17.066667H160.01024v-85.333333H205.236907a161.28 161.28 0 0 1 12.8-33.706667L186.036907 341.333333l56.32-61.44 32 34.56A159.146667 159.146667 0 0 1 305.93024 298.666667V251.733333H384.436907V298.666667a145.493333 145.493333 0 0 1 31.146666 14.08l32-34.56L505.61024 341.333333l-32.426667 34.56a162.56 162.56 0 0 1 13.226667 33.706667z" p-id="3461"></path></svg>