<?xml version="1.0" standalone="no"?><!DOCTYPE svg PUBLIC "-//W3C//DTD SVG 1.1//EN" "http://www.w3.org/Graphics/SVG/1.1/DTD/svg11.dtd"><svg t="1661234980205" class="icon" viewBox="0 0 1024 1024" version="1.1" xmlns="http://www.w3.org/2000/svg" p-id="1651" xmlns:xlink="http://www.w3.org/1999/xlink" width="200" height="200"><defs><style type="text/css">@font-face { font-family: feedback-iconfont; src: url("//at.alicdn.com/t/font_1031158_u69w8yhxdu.woff2?t=1630033759944") format("woff2"), url("//at.alicdn.com/t/font_1031158_u69w8yhxdu.woff?t=1630033759944") format("woff"), url("//at.alicdn.com/t/font_1031158_u69w8yhxdu.ttf?t=1630033759944") format("truetype"); }
</style></defs><path d="M950.4 576.704h-28.8v-62.624c0-6.944-6.4-13.92-12.8-13.92H864c-6.4 0-12.8 6.976-12.8 13.92v62.624h-208c-6.4 0-12.8 3.456-19.2 6.944L601.6 128h-70.4l-19.2 292.16h-54.4v-86.944c0-17.376-12.8-31.296-28.8-31.296h-83.2c-16 0-28.8 13.92-28.8 31.296v83.488H99.2C64 420.16 32 451.488 32 493.216V928h140.8v-160c0-62.624 48-114.784 105.6-114.784h76.8c57.6 0 105.6 52.16 105.6 114.784v160h489.6c22.4 0 41.6-20.864 41.6-45.216v-260.864c0-24.352-19.2-45.216-41.6-45.216z m-457.6 0H137.6V500.16h355.2v76.544z m284.8 274.784H672v-76.544h105.6v76.544z m0-118.272H672v-76.512h105.6v76.512z m144 118.272h-105.6v-76.544h105.6v76.544z m0-118.272h-105.6v-76.512h105.6v76.512z" p-id="1652"></path></svg>